<svg id="Layer_1" data-name="Layer 1" xmlns="http://www.w3.org/2000/svg" viewBox="0 0 24 23.31"><defs><style>.cls-1{fill:#424242;}</style></defs><path class="cls-1" d="M10.65.43a12,12,0,0,0-3,23.08.55.55,0,0,0,.72-.6V21a5,5,0,0,1-1.08.12,2.59,2.59,0,0,1-2.53-2.29A2.49,2.49,0,0,0,4,17.62c-.36-.12-.48-.12-.48-.24s.36-.24.48-.24c.72,0,1.32.84,1.56,1.2a2.22,2.22,0,0,0,1.69,1.21,2.38,2.38,0,0,0,1.08-.25,3,3,0,0,1,1.2-2.16c-2.76-.6-4.81-2.16-4.81-4.81A5.7,5.7,0,0,1,6.2,8.72,4.45,4.45,0,0,1,6,7a4.11,4.11,0,0,1,.36-1.92A5.42,5.42,0,0,1,9.69,6.68,6.51,6.51,0,0,1,12,6.32a7.74,7.74,0,0,1,2.4.36,5.19,5.19,0,0,1,3.37-1.56A6,6,0,0,1,18,7a4,4,0,0,1-.24,1.68,5.45,5.45,0,0,1,1.44,3.61c0,2.65-2,4.21-4.81,4.81a3.71,3.71,0,0,1,1.2,2.77V23a.65.65,0,0,0,.84.6A12.07,12.07,0,0,0,10.65.43Z" transform="translate(0 -0.34)"/></svg>