<svg id="Layer_1" data-name="Layer 1" xmlns="http://www.w3.org/2000/svg" viewBox="0 0 24 24"><defs><style>.cls-1{fill:#424242;}</style></defs><path class="cls-1" d="M21.82,0H2.18A2.19,2.19,0,0,0,0,2.18V21.82A2.19,2.19,0,0,0,2.18,24H21.82A2.19,2.19,0,0,0,24,21.82V2.18A2.19,2.19,0,0,0,21.82,0ZM7.59,19.64H4.37V9.28H7.59ZM5.94,7.8A1.88,1.88,0,1,1,7.82,5.92,1.88,1.88,0,0,1,5.94,7.8Zm13.7,11.84H16.42v-5c0-1.2,0-2.75-1.67-2.75s-1.93,1.31-1.93,2.66v5.13H9.6V9.28h3.09V10.7h.05a3.36,3.36,0,0,1,3-1.68C19,9,19.64,11.17,19.64,14Z"/></svg>