<?xml version="1.0" encoding="utf-8"?>
<!-- Generator: Adobe Illustrator 26.0.0, SVG Export Plug-In . SVG Version: 6.00 Build 0)  -->
<svg version="1.1"
	 id="svg3476" sodipodi:docname="w3_css-official.svg" xmlns:cc="http://creativecommons.org/ns#" xmlns:dc="http://purl.org/dc/elements/1.1/" xmlns:inkscape="http://www.inkscape.org/namespaces/inkscape" xmlns:rdf="http://www.w3.org/1999/02/22-rdf-syntax-ns#" xmlns:sodipodi="http://sodipodi.sourceforge.net/DTD/sodipodi-0.dtd" xmlns:svg="http://www.w3.org/2000/svg"
	 xmlns="http://www.w3.org/2000/svg" xmlns:xlink="http://www.w3.org/1999/xlink" x="0px" y="0px" viewBox="0 0 500 500"
	 style="enable-background:new 0 0 500 500;" xml:space="preserve">
<style type="text/css">
	.st0{fill:#264DE4;}
	.st1{fill:#2965F1;}
	.st2{fill:#EBEBEB;}
	.st3{fill:#FFFFFF;}
</style>
<g>
	<polygon id="polygon2989" class="st0" points="69.7,450 29.5,0 470.5,0 430.3,450 249.7,500 	"/>
	<polygon id="polygon2991" class="st1" points="395.9,421.4 430.3,36.8 250,36.8 250,461.7 	"/>
	<polygon id="polygon2993" class="st2" points="121.5,203.7 126.5,258.9 250,258.9 250,203.7 	"/>
	<polygon id="polygon2995" class="st2" points="116.6,147.2 250,147.2 250,92 249.8,92 111.7,92 	"/>
	<polygon id="polygon2997" class="st2" points="249.7,404.6 250,404.5 250,347.1 249.8,347.1 188.3,330.5 184.4,286.5 154.5,286.5 
		129,286.5 136.7,373.2 	"/>
	<polygon id="polygon3005" class="st3" points="388.1,92 249.8,92 249.8,147.2 327.6,147.2 322.6,203.7 249.8,203.7 249.8,258.9 
		317.8,258.9 311.4,330.5 249.8,347.1 249.8,404.5 363,373.2 363.8,363.9 376.8,218.5 378.1,203.7 	"/>
</g>
</svg>
