<?xml version="1.0" encoding="utf-8"?>
<!-- Generator: Adobe Illustrator 26.0.0, SVG Export Plug-In . SVG Version: 6.00 Build 0)  -->
<svg version="1.1" id="Layer_1" xmlns="http://www.w3.org/2000/svg" xmlns:xlink="http://www.w3.org/1999/xlink" x="0px" y="0px"
	 viewBox="0 0 500 500" style="enable-background:new 0 0 500 500;" xml:space="preserve">
<style type="text/css">
	.st0{fill:#161614;}
</style>
<g>
	<path class="st0" d="M250,6.2C111.9,6.2,0,118.1,0,256.2c0,110.4,71.6,204.1,170.9,237.2c12.5,2.3,17.1-5.4,17.1-12
		c0-6-0.3-25.7-0.3-46.5c-69.6,15.1-84.2-29.5-84.2-29.5c-11.4-28.9-27.7-36.6-27.7-36.6c-22.7-15.5,1.7-15.2,1.7-15.2
		c25.1,1.8,38.3,25.8,38.3,25.8c22.3,38.2,58.5,27.2,72.7,20.8c2.3-16.2,8.7-27.2,15.9-33.4c-55.5-6.3-113.9-27.7-113.9-123.5
		c0-27.3,9.8-49.6,25.8-67.1c-2.6-6.3-11.2-31.7,2.4-66.1c0,0,21-6.7,68.7,25.6c19.9-5.5,41.3-8.3,62.5-8.4
		c21.3,0.1,42.7,2.9,62.6,8.4c47.7-32.4,68.7-25.6,68.7-25.6c13.6,34.4,5,59.8,2.4,66.1c16,17.5,25.7,39.8,25.7,67.1
		c0,96-58.5,117.1-114.1,123.3c9,7.8,16.9,23,16.9,46.3c0,33.4-0.3,60.3-0.3,68.6c0,6.6,4.5,14.4,17.2,12
		C428.4,460.2,500,366.6,500,256.2C499.9,118.1,388,6.2,250,6.2"/>
</g>
</svg>
