<?xml version="1.0" encoding="utf-8"?>
<!-- Generator: Adobe Illustrator 26.0.0, SVG Export Plug-In . SVG Version: 6.00 Build 0)  -->
<svg version="1.1" id="Layer_1" xmlns="http://www.w3.org/2000/svg" xmlns:xlink="http://www.w3.org/1999/xlink" x="0px" y="0px"
	 viewBox="0 0 500 500" style="enable-background:new 0 0 500 500;" xml:space="preserve">
<style type="text/css">
	.st0{fill:#E44D26;}
	.st1{fill:#F16529;}
	.st2{fill:#EBEBEB;}
	.st3{fill:#FFFFFF;}
</style>
<g>
	<path class="st0" d="M470.4,0l-40.2,449.9L249.8,500L69.7,450L29.6,0H470.4L470.4,0z"/>
	<path class="st1" d="M250,461.8l145.9-40.4l34.3-384.5H250V461.8z"/>
	<path class="st2" d="M171.9,147.2H250V92H111.6l1.3,14.8l13.6,152.1H250v-55.2h-73.1L171.9,147.2z M184.4,286.5H129l7.7,86.6
		l113.1,31.4l0.2-0.1V347l-0.2,0.1l-61.4-16.6L184.4,286.5L184.4,286.5z"/>
	<path class="st3" d="M249.8,258.9h67.9l-6.4,71.6l-61.6,16.6v57.4l113.1-31.4l0.8-9.3l13-145.3l1.4-14.8H249.8V258.9L249.8,258.9z
		 M249.8,147.1v0.1h133.3l1.1-12.4l2.5-28l1.3-14.8H249.8V147.1L249.8,147.1z"/>
</g>
</svg>
