<?xml version="1.0" encoding="utf-8"?>
<!-- Generator: Adobe Illustrator 26.0.0, SVG Export Plug-In . SVG Version: 6.00 Build 0)  -->
<svg version="1.1" id="Layer_1" xmlns="http://www.w3.org/2000/svg" xmlns:xlink="http://www.w3.org/1999/xlink" x="0px" y="0px"
	 viewBox="0 0 500 500" style="enable-background:new 0 0 500 500;" xml:space="preserve">
<style type="text/css">
	.st0{fill:#5D87A1;}
	.st1{fill:#F8981D;}
</style>
<g>
	<path class="st0" d="M120.2,389.6h-19.3c-0.7-32.6-2.6-63.2-5.6-91.9h-0.2l-29.4,91.9H51l-29.2-91.9h-0.2
		c-2.2,27.5-3.5,58.2-4.1,91.9H0c1.1-41,4-79.4,8.5-115.3h23.9L60.3,359h0.2l28-84.7h22.9C116.3,316.3,119.3,354.7,120.2,389.6
		 M203.9,304.5c-7.9,42.6-18.2,73.6-31.1,92.9c-10,14.9-21,22.3-33,22.3c-3.2,0-7.1-1-11.8-2.9v-10.3c2.3,0.3,5,0.5,8,0.5
		c5.6,0,10.1-1.5,13.5-4.6c4.1-3.8,6.1-8,6.1-12.6c0-3.2-1.6-9.7-4.8-19.6l-21.2-65.7h19l15.2,49.2c3.4,11.2,4.8,19,4.3,23.4
		c8.3-22.2,14.1-46.4,17.4-72.6L203.9,304.5L203.9,304.5L203.9,304.5z"/>
	<path class="st1" d="M460.7,389.6h-54.8V274.3h18.4v101.1h36.4V389.6z M391.5,392.3l-21.2-10.5c1.9-1.5,3.7-3.2,5.3-5.1
		c9-10.6,13.5-26.2,13.5-47c0-38.1-15-57.2-44.9-57.2c-14.7,0-26.1,4.8-34.3,14.5c-9,10.6-13.5,26.2-13.5,46.8
		c0,20.3,4,35.1,11.9,44.6c7.3,8.5,18.3,12.8,33,12.8c5.5,0,10.5-0.7,15.1-2l27.6,16.1L391.5,392.3z M322.9,366.5
		c-4.7-7.5-7-19.6-7-36.2c0-29,8.8-43.6,26.5-43.6c9.2,0,16,3.5,20.3,10.4c4.7,7.5,7,19.5,7,35.9c0,29.3-8.8,43.9-26.5,43.9
		C334,376.9,327.2,373.5,322.9,366.5 M288.4,357.6c0,9.8-3.6,17.8-10.8,24.1c-7.2,6.3-16.8,9.4-28.8,9.4c-11.3,0-22.2-3.6-32.8-10.8
		l5-9.9c9.1,4.6,17.3,6.8,24.7,6.8c6.9,0,12.4-1.5,16.3-4.6c3.9-3.1,6.3-7.4,6.3-12.8c0-6.8-4.8-12.7-13.5-17.6
		c-8.1-4.4-24.2-13.7-24.2-13.7c-8.8-6.4-13.1-13.2-13.1-24.5c0-9.3,3.3-16.9,9.8-22.6c6.6-5.8,15-8.6,25.4-8.6
		c10.7,0,20.4,2.9,29.2,8.5l-4.4,9.9c-7.5-3.2-14.9-4.8-22.2-4.8c-5.9,0-10.5,1.4-13.6,4.3c-3.2,2.8-5.2,6.5-5.2,10.9
		c0,6.8,4.9,12.7,13.9,17.7c8.2,4.4,24.7,13.9,24.7,13.9C283.9,339.6,288.4,346.4,288.4,357.6"/>
	<path class="st0" d="M483.8,235.7c-11.1-0.3-19.8,0.8-27,3.9c-2.1,0.8-5.4,0.8-5.7,3.5c1.1,1.1,1.3,2.9,2.2,4.5
		c1.7,2.8,4.6,6.5,7.2,8.5c2.9,2.2,5.8,4.5,8.9,6.4c5.4,3.4,11.6,5.3,16.8,8.6c3.1,1.9,6.1,4.5,9.2,6.5c1.5,1.1,2.5,2.9,4.4,3.6
		v-0.4c-1-1.3-1.3-3.1-2.2-4.5l-4.2-4c-4-5.4-9.1-10.2-14.5-14.1c-4.5-3.1-14.2-7.2-16-12.4l-0.3-0.3c3.1-0.3,6.7-1.4,9.6-2.3
		c4.7-1.2,9.1-1,13.9-2.2c2.2-0.6,4.5-1.3,6.7-1.9v-1.3c-2.5-2.5-4.3-5.8-7-8.2c-7.1-6.1-14.9-12.1-23-17.1c-4.3-2.8-9.9-4.6-14.5-7
		c-1.7-0.8-4.5-1.3-5.4-2.6c-2.5-3.1-3.9-7.1-5.7-10.7c-4-7.7-7.9-16.1-11.4-24.2c-2.5-5.4-4-10.8-7.1-15.9
		c-14.4-23.7-29.9-38-53.9-52.1c-5.1-2.9-11.3-4.2-17.8-5.7l-10.4-0.6c-2.2-1-4.5-3.6-6.4-4.9c-7.9-5-28.4-15.9-34.3-1.5
		c-3.8,9.1,5.6,18,8.8,22.6c2.4,3.2,5.4,6.8,7.1,10.4c1,2.4,1.3,4.9,2.2,7.4c2.2,6.1,4.3,12.9,7.2,18.7c1.5,2.9,3.2,6,5.1,8.6
		c1.1,1.5,3.1,2.2,3.5,4.7c-1.9,2.8-2.1,7-3.2,10.4c-5,15.7-3.1,35.2,4,46.8c2.2,3.5,7.5,11.1,14.6,8.2c6.3-2.5,4.9-10.4,6.7-17.4
		c0.4-1.7,0.1-2.8,1-3.9v0.3c1.9,3.9,3.9,7.7,5.7,11.6c4.3,6.8,11.8,13.9,18.1,18.6c3.3,2.5,6,6.8,10.2,8.4v-0.4h-0.3
		c-0.8-1.2-2.1-1.8-3.2-2.8c-2.5-2.5-5.3-5.6-7.2-8.4c-5.8-7.8-11-16.4-15.6-25.4c-2.2-4.3-4.2-9.1-6-13.4c-0.8-1.7-0.8-4.2-2.2-5
		c-2.1,3.1-5.1,5.7-6.7,9.5c-2.7,6-2.9,13.4-3.9,21l-0.5,0.3c-4.4-1.1-6-5.7-7.7-9.6c-4.2-9.9-4.9-25.8-1.3-37.2
		c1-2.9,5.2-12.1,3.5-14.9c-0.8-2.7-3.6-4.2-5.2-6.3c-1.8-2.6-3.8-6-5-8.9c-3.3-7.8-5-16.4-8.6-24.2c-1.7-3.6-4.6-7.4-7-10.7
		c-2.7-3.8-5.6-6.4-7.7-10.9c-0.7-1.5-1.7-4-0.6-5.7c0.3-1.1,0.8-1.5,1.9-1.8c1.8-1.5,7,0.4,8.8,1.3c5.2,2.1,9.5,4,13.8,7
		c1.9,1.4,4,4,6.5,4.7h2.9c4.4,1,9.5,0.3,13.6,1.5c7.4,2.4,14.1,5.8,20.1,9.6c18.2,11.6,33.3,28,43.4,47.6c1.7,3.2,2.4,6.1,3.9,9.5
		c2.9,6.8,6.6,13.8,9.5,20.5c2.9,6.5,5.7,13.2,9.9,18.7c2.1,2.9,10.5,4.5,14.2,6c2.8,1.2,7.1,2.4,9.6,3.9c4.7,2.9,9.5,6.3,13.9,9.5
		C476.4,229.4,483.4,232.9,483.8,235.7 M341.8,114.7c-1.9,0-3.8,0.2-5.7,0.7v0.3h0.3c1.1,2.2,3.1,3.8,4.5,5.7
		c1.1,2.2,2.1,4.4,3.2,6.7l0.3-0.3c2-1.4,2.9-3.6,2.9-7c-0.8-1-1-1.9-1.7-2.9C344.7,116.5,342.9,115.8,341.8,114.7"/>
	<path class="st1" d="M497.1,389.5h2.9v-14.1h-4.3l-3.5,9.6l-3.8-9.6h-4.2v14.1h2.7v-10.7h0.2l4,10.7h2.1l4-10.7L497.1,389.5
		L497.1,389.5z M473.9,389.5h3.1v-11.7h4v-2.4h-11.2v2.4h4.2L473.9,389.5L473.9,389.5z"/>
</g>
</svg>
