<?xml version="1.0" encoding="utf-8"?>
<!-- Generator: Adobe Illustrator 26.0.0, SVG Export Plug-In . SVG Version: 6.00 Build 0)  -->
<svg version="1.1" id="Layer_1" xmlns="http://www.w3.org/2000/svg" xmlns:xlink="http://www.w3.org/1999/xlink" x="0px" y="0px"
	 viewBox="0 0 500 500" style="enable-background:new 0 0 500 500;" xml:space="preserve">
<style type="text/css">
	.st0{fill:#FF6C37;}
	.st1{fill:#FFFFFF;}
</style>
<g>
	<path class="st0" d="M498,281.7C515.5,144.8,418.7,19.5,282,2S19.5,81.3,2,218S81.3,480.2,218,498C355,515.5,480.2,418.7,498,281.7
		z"/>
	<g transform="translate(50.181225, 45.198924)">
		<path class="st1" d="M290.1,115.3L184.6,220.8l-29.7-29.7C258.6,87.3,268.8,96.3,290.1,115.3L290.1,115.3z"/>
		<path class="st0" d="M184.6,223.3c-0.7,0-1.2-0.2-1.7-0.7l-30-29.7c-1-1-1-2.5,0-3.5c105.5-105.5,116.5-95.5,138.7-75.5
			c0.5,0.5,0.7,1,0.7,1.7s-0.2,1.2-0.7,1.7L186.1,222.5C185.8,223,185.1,223.3,184.6,223.3z M158.3,191.1l26.2,26.2l101.7-101.7
			C267.8,99.1,255.3,94.1,158.3,191.1L158.3,191.1z"/>
		<path class="st1" d="M214.8,251l-28.7-28.7l105.5-105.5C319.8,145.3,277.6,191.6,214.8,251z"/>
		<path class="st0" d="M214.8,253.5c-0.7,0-1.2-0.2-1.7-0.7L184.3,224c-0.5-0.5-0.5-1-0.5-1.7s0.2-1.2,0.7-1.7l105.5-105.5
			c1-1,2.5-1,3.5,0c6.5,6,10,14.5,9.7,23.2c-0.5,27.7-32,63-86.5,114.5C216.1,253.3,215.3,253.5,214.8,253.5L214.8,253.5z
			 M189.6,222.3c16,16.2,22.7,22.7,25.2,25.2c42-40,82.7-81,83-109.2c0.2-6.5-2.2-13-6.5-18L189.6,222.3z"/>
		<path class="st1" d="M155.3,191.8l21.2,21.2c0.5,0.5,0.5,1,0,1.5c-0.2,0.2-0.2,0.2-0.5,0.2l-44,9.5c-2.2,0.2-4.2-1.2-4.7-3.5
			c-0.2-1.2,0.2-2.5,1-3.2l25.5-25.5C154.3,191.6,155.1,191.3,155.3,191.8z"/>
		<path class="st0" d="M131.3,226.8c-3.7,0-6.5-3-6.5-6.7c0-1.7,0.7-3.5,2-4.7l25.5-25.5c1.5-1.2,3.5-1.2,5,0l21.2,21.2
			c1.5,1.2,1.5,3.5,0,5c-0.5,0.5-1,0.7-1.7,1l-44,9.5C132.3,226.5,131.8,226.8,131.3,226.8L131.3,226.8z M154.6,194.6L130.1,219
			c-0.5,0.5-0.7,1.2-0.2,2c0.2,0.7,1,1,1.7,0.7l41.2-9L154.6,194.6z"/>
		<path class="st1" d="M345.8,56.8c-16-15.5-41.7-15-57.2,1.2c-15.5,16.2-15,41.7,1.2,57.2c13.2,12.7,33.2,15,49,5.5l-28.5-28.5
			L345.8,56.8z"/>
		<path class="st0" d="M317.8,129.1c-23.7,0-43-19.2-43-43s19.2-43,43-43c11,0,21.7,4.2,29.7,12c0.5,0.5,0.7,1,0.7,1.7
			s-0.2,1.2-0.7,1.7l-33.7,33.7l26.5,26.5c1,1,1,2.5,0,3.5c-0.2,0.2-0.2,0.2-0.5,0.5C333.3,126.8,325.5,129.1,317.8,129.1z
			 M317.8,48.3c-21,0-38,17-37.7,38c0,21,17,38,38,37.7c5.7,0,11.5-1.2,16.7-4l-26.2-26c-0.5-0.5-0.7-1-0.7-1.7s0.2-1.2,0.7-1.7
			L342,57.1C335.3,51.3,326.8,48.3,317.8,48.3L317.8,48.3z"/>
		<path class="st1" d="M346.5,57.6l-0.5-0.5l-35.7,35.2l28.2,28.2c2.7-1.7,5.5-3.7,7.7-6C362.3,98.8,362.3,73.3,346.5,57.6
			L346.5,57.6z"/>
		<path class="st0" d="M338.8,123.3c-0.7,0-1.2-0.2-1.7-0.7l-28.5-28.5c-0.5-0.5-0.7-1-0.7-1.7s0.2-1.2,0.7-1.7L344,55.1
			c1-1,2.5-1,3.5,0l0.7,0.5c16.7,16.7,16.7,43.7,0.2,60.7c-2.5,2.5-5.2,4.7-8.2,6.5C339.5,123.1,339,123.3,338.8,123.3L338.8,123.3z
			 M313.8,92.3l25.2,25.2c2-1.2,4-3,5.5-4.5c14.2-14.2,15-37.5,1.2-52.5L313.8,92.3z"/>
		<path class="st1" d="M294.3,119.8c-6-6-15.7-6-21.7,0L178.3,214l15.7,15.7l99.7-87.5c6.5-5.5,7-15.2,1.5-21.7
			C294.8,120.3,294.6,120.1,294.3,119.8L294.3,119.8z"/>
		<path class="st0" d="M193.8,232.3c-0.7,0-1.2-0.2-1.7-0.7l-15.7-15.7c-1-1-1-2.5,0-3.5l94.2-94.2c7-7,18.2-7,25.2,0
			c7,7,7,18.2,0,25.2c-0.2,0.2-0.5,0.5-0.7,0.7l-99.7,87.5C195.1,232,194.6,232.3,193.8,232.3L193.8,232.3z M181.8,214l12.2,12.2
			l98-86c5.5-4.5,6-12.7,1.5-18.2c-4.5-5.5-12.7-6-18.2-1.5c-0.2,0.2-0.5,0.5-1,0.7L181.8,214z"/>
		<path class="st1" d="M106.1,321.3c-1,0.5-1.5,1.5-1.2,2.5l4.2,18c1,2.5-0.5,5.5-3.2,6.2c-2,0.7-4.2,0-5.5-1.5l-27.5-27.2
			l89.7-89.7l31,0.5l21,21C209.6,255.3,179.3,284.5,106.1,321.3L106.1,321.3z"/>
		<path class="st0" d="M104.1,350.5c-2,0-4-0.7-5.2-2.2L71.6,321c-0.5-0.5-0.7-1-0.7-1.7c0-0.7,0.2-1.2,0.7-1.7l89.7-89.7
			c0.5-0.5,1.2-0.7,1.7-0.7l31,0.5c0.7,0,1.2,0.2,1.7,0.7l21,21c0.5,0.5,0.7,1.2,0.7,2s-0.2,1.2-1,1.7l-1.7,1.5
			c-26.5,23.2-62.5,46.5-107.2,68.7l4.2,17.7c0.7,3.2-0.7,6.7-3.7,8.5C106.6,350.3,105.3,350.5,104.1,350.5z M76.6,319.3l25.7,25.5
			c0.7,1.2,2.2,1.7,3.5,1c1.2-0.7,1.7-2.2,1-3.5l-4.2-18c-0.5-2.2,0.5-4.2,2.5-5.2c44.2-22.2,80-45.2,106.2-68l-18.5-18.5l-28.7-0.5
			L76.6,319.3z"/>
		<path class="st1" d="M51.6,340.8l21.5-21.5l32,32l-51-3.5c-2.2-0.2-3.7-2.2-3.5-4.5C50.6,342.3,50.8,341.3,51.6,340.8L51.6,340.8z
			"/>
		<path class="st0" d="M105.1,353.5L53.8,350c-3.7-0.2-6.2-3.5-6-7.2c0.2-1.5,0.7-3,2-4l21.5-21.5c1-1,2.5-1,3.5,0l32,32
			c0.7,0.7,1,1.7,0.5,2.7C106.8,353,106.1,353.5,105.1,353.5L105.1,353.5z M73.1,322.8l-19.7,19.7c-0.7,0.5-0.7,1.7,0,2.2
			c0.2,0.2,0.5,0.5,1,0.5l44.2,3L73.1,322.8z"/>
		<path class="st0" d="M153.8,241c-1.5,0-2.5-1.2-2.5-2.5c0-0.7,0.2-1.2,0.7-1.7l24.2-24.2c1-1,2.5-1,3.5,0l15.7,15.7
			c0.7,0.7,1,1.5,0.7,2.5c-0.2,0.7-1,1.5-2,1.7l-40,8.5C154.1,241,153.8,241,153.8,241L153.8,241z M178.1,217.8l-16.5,16.5l27-5.7
			L178.1,217.8z"/>
		<path class="st1" d="M193.6,230l-27.5,6c-2,0.5-4-0.7-4.5-2.7c-0.2-1.2,0-2.5,1-3.5l15.2-15.2L193.6,230z"/>
		<path class="st0" d="M165.6,238.5c-3.5,0-6.2-2.7-6.2-6.2c0-1.7,0.7-3.2,1.7-4.5l15.2-15.2c1-1,2.5-1,3.5,0l15.7,15.7
			c0.7,0.7,1,1.5,0.7,2.5c-0.2,0.7-1,1.5-2,1.7l-27.5,6C166.3,238.5,165.8,238.5,165.6,238.5L165.6,238.5z M178.1,217.8l-13.5,13.5
			c-0.5,0.5-0.5,1-0.2,1.5s0.7,0.7,1.5,0.7l23-5L178.1,217.8z"/>
		<path class="st0" d="M346.8,81.6c-0.5-1.5-2.2-2.2-3.7-1.7c-1.5,0.5-2.2,2.2-1.7,3.7c0,0.2,0.2,0.5,0.2,0.7c1.5,3,1,6.7-1,9.5
			c-1,1.2-0.7,3,0.2,4c1.2,1,3,0.7,4-0.5C348.5,92.6,349.3,86.6,346.8,81.6L346.8,81.6z"/>
	</g>
</g>
</svg>
