<?xml version="1.0" encoding="utf-8"?>
<!-- Generator: Adobe Illustrator 26.0.0, SVG Export Plug-In . SVG Version: 6.00 Build 0)  -->
<svg version="1.1" id="Layer_1" xmlns="http://www.w3.org/2000/svg" xmlns:xlink="http://www.w3.org/1999/xlink" x="0px" y="0px"
	 viewBox="0 0 500 500" style="enable-background:new 0 0 500 500;" xml:space="preserve">
<style type="text/css">
	.st0{fill:#2489CA;}
	.st1{fill:#1070B3;}
	.st2{fill:#0877B9;}
	.st3{fill:#3C99D4;}
</style>
<g>
	<path class="st0" d="M4.8,174.4c0,0-12.2-8.9,2.4-20.7l34-30.8c0,0,9.7-10.4,20-1.3L375.5,362v115.3c0,0-0.2,18.1-23.1,16.1
		L4.8,174.4z"/>
	<path class="st1" d="M85.7,248.7l-81,74.4c0,0-8.3,6.3,0,17.4l37.6,34.6c0,0,8.9,9.7,22.1-1.3l85.9-65.8L85.7,248.7z"/>
	<path class="st2" d="M227.9,249.3l148.5-114.6l-1-114.7c0,0-6.3-25-27.5-12L150.3,189.8L227.9,249.3z"/>
	<path class="st3" d="M352.3,493.5c8.6,8.9,19.1,6,19.1,6l115.7-57.7c14.8-10.2,12.7-22.9,12.7-22.9V74.8
		c0-15.1-15.3-20.4-15.3-20.4L384.3,5.5C362.3-8.2,348,8,348,8s18.5-13.4,27.5,12v455.2c0,3.1-0.7,6.2-2,9
		c-2.6,5.4-8.4,10.4-22.1,8.3L352.3,493.5z"/>
</g>
</svg>
