<?xml version="1.0"?>
<svg width="512.001" height="512.001" xmlns="http://www.w3.org/2000/svg" xmlns:svg="http://www.w3.org/2000/svg" version="1.1" xml:space="preserve">
 <g class="layer">
  <title>Layer 1</title>
  <g id="svg_1" transform="matrix(1 0 0 1 0 0)">
   <g id="svg_2">
    <path d="m492.98,219.06c-11.86,-6.51 -25.73,-6.08 -37.12,1.15c-32.92,20.9 -79.96,30.24 -136.98,27.37c12.87,-20.34 19.78,-43.95 19.78,-68.43c0,-70.74 -57.55,-128.29 -128.29,-128.29c-67.26,0 -122.52,51.37 -127.86,117.72c-10.91,10.91 -37.83,34.28 -71.47,38.29c-4.67,0.55 -8.64,3.68 -10.26,8.09c-1.63,4.42 -0.65,9.37 2.54,12.83c1.59,1.73 37.45,39.74 105.63,39.74c2.7,0 5.47,-0.07 8.28,-0.2c0.52,0.56 1.04,1.12 1.58,1.67c-19.42,20.85 -30.45,48.1 -30.67,76.66c-0.22,30.79 11.59,59.78 33.28,81.62c21.68,21.84 50.57,33.86 81.34,33.86l155.51,0c50.34,0 91.09,-19.93 117.84,-57.63c23.48,-33.08 35.89,-79.3 35.89,-133.66l0,-18.65c0,-13.38 -7.29,-25.69 -19.02,-32.14zm-451.94,6.15c17.14,-6.25 31.7,-15.59 42.89,-24.41c2.49,14.53 7.47,28.52 14.7,41.34c-25.53,-1.7 -44.75,-9.52 -57.59,-16.93zm445.91,44.64c0,49.13 -10.81,90.34 -31.26,119.16c-22.17,31.24 -54.95,47.09 -97.41,47.09l-155.52,0c-24.05,0 -46.62,-9.4 -63.57,-26.47c-16.94,-17.07 -26.18,-39.72 -26,-63.78c0.2,-25.93 11.87,-50.51 32.01,-67.44c2.86,-2.4 4.5,-5.95 4.47,-9.68c-0.03,-3.73 -1.72,-7.26 -4.61,-9.61c-4.69,-3.83 -9.09,-8.13 -13.09,-12.79c0,0 0,-0.01 0,-0.01c-16.03,-18.66 -24.86,-42.51 -24.86,-67.17c0,-1.63 0.04,-3.11 0.12,-4.62c2.42,-55.3 47.73,-98.62 103.14,-98.62c56.93,0 103.25,46.31 103.25,103.24c0,26.31 -9.92,51.37 -27.94,70.58c-3.25,3.48 -4.26,8.5 -2.59,12.96c1.67,4.46 5.72,7.59 10.46,8.07c72.98,7.43 133.73,-2.74 175.74,-29.4c5.13,-3.26 9.84,-1.33 11.63,-0.35c1.81,1 6.03,3.99 6.03,10.19l0,18.65z" fill="#ffffff" id="svg_3"/>
   </g>
  </g>
  <g id="svg_4" transform="matrix(1 0 0 1 0 0)">
   <g id="svg_5">
    <path d="m302.82,374.73l-10.43,0c-6.92,0 -12.53,5.61 -12.53,12.53s5.61,12.52 12.53,12.52l10.43,0c6.92,0 12.52,-5.61 12.52,-12.52s-5.6,-12.53 -12.52,-12.53z" fill="#ffffff" id="svg_6"/>
   </g>
  </g>
  <g id="svg_7" transform="matrix(1 0 0 1 0 0)">
   <g id="svg_8">
    <path d="m425.58,324.05c-5.77,-3.82 -13.54,-2.24 -17.36,3.53c-13.84,20.91 -34.65,36.22 -58.58,43.09c-6.65,1.91 -10.49,8.85 -8.58,15.49c1.57,5.5 6.58,9.07 12.02,9.07c1.15,0 2.31,-0.15 3.47,-0.49c29.66,-8.52 55.43,-27.46 72.56,-53.34c3.81,-5.76 2.23,-13.53 -3.53,-17.35z" fill="#ffffff" id="svg_9"/>
   </g>
  </g>
  <g id="svg_10">
   <g id="svg_11">
    <path d="m179.09,126.36c-6.92,0 -12.53,5.61 -12.53,12.53l0,31.43c0,6.92 5.61,12.53 12.53,12.53s12.52,-5.61 12.52,-12.53l0,-31.43c0,-6.92 -5.61,-12.53 -12.52,-12.53z" fill="#ffffff" id="svg_12"/>
   </g>
  </g>
 </g>
</svg>